<?xml version="1.0" encoding="UTF-8" standalone="no"?>
<!-- Generator: Adobe Illustrator 19.1.0, SVG Export Plug-In . SVG Version: 6.00 Build 0)  -->

<svg
   version="1.1"
   id="Layer_1"
   x="0px"
   y="0px"
   width="220.04298"
   height="240"
   viewBox="0 0 220.04298 240"
   enable-background="new 0 0 3318 3318"
   xml:space="preserve"
   sodipodi:docname="12.svg"
   inkscape:version="1.4 (e7c3feb100, 2024-10-09)"
   xmlns:inkscape="http://www.inkscape.org/namespaces/inkscape"
   xmlns:sodipodi="http://sodipodi.sourceforge.net/DTD/sodipodi-0.dtd"
   xmlns="http://www.w3.org/2000/svg"
   xmlns:svg="http://www.w3.org/2000/svg"><defs
   id="defs96" /><sodipodi:namedview
   id="namedview96"
   pagecolor="#ffffff"
   bordercolor="#000000"
   borderopacity="0.25"
   inkscape:showpageshadow="2"
   inkscape:pageopacity="0.0"
   inkscape:pagecheckerboard="0"
   inkscape:deskcolor="#d1d1d1"
   inkscape:zoom="0.34418324"
   inkscape:cx="-1580.5534"
   inkscape:cy="-92.973731"
   inkscape:window-width="2560"
   inkscape:window-height="1350"
   inkscape:window-x="0"
   inkscape:window-y="0"
   inkscape:window-maximized="1"
   inkscape:current-layer="Layer_1" />






































































<path
   fill="#010202"
   d="m 119.99999,240.00004 c -66.168,0 -120,-53.8321 -120,-120 0,-66.168 53.832,-120 120,-120 3.2056,0 6.4898,0.1337 9.7608,0.3974 3.5771,0.2891 6.7246,2.4717 8.249,5.7197 1.5244,3.2481 1.1914,7.0645 -0.8721,10 -11.8657,16.876 -18.1377,36.7383 -18.1377,57.4385 0,25.291 9.4624,49.4258 26.6445,67.96 17.0899,18.4355 40.2461,29.6963 65.2022,31.708 3.5762,0.2881 6.7246,2.4707 8.249,5.7197 1.5244,3.2481 1.1914,7.0645 -0.8721,10 -22.4785,31.9697 -59.1972,51.0567 -98.2236,51.0567 z m -8.5991,-219.6338 c -51.1284,4.3769 -91.4009,47.3916 -91.4009,99.6338 0,55.1406 44.8599,100 100,100 26.8906,0 52.4678,-10.876 71.1123,-29.708 -22.9355,-5.4561 -43.8369,-17.5987 -60.1348,-35.1788 -20.6211,-22.2441 -31.9775,-51.208 -31.9775,-81.5576 0,-18.6582 4.2481,-36.7519 12.4009,-53.1894 z"
   id="path71"
   style="fill:#ffffff" />

























</svg>
