<?xml version="1.0" encoding="UTF-8" standalone="no"?>
<!-- Generator: Adobe Illustrator 19.1.0, SVG Export Plug-In . SVG Version: 6.00 Build 0)  -->

<svg
   version="1.1"
   id="Layer_1"
   x="0px"
   y="0px"
   width="380"
   height="380"
   viewBox="0 0 380 380"
   enable-background="new 0 0 3318 3318"
   xml:space="preserve"
   sodipodi:docname="1.svg"
   inkscape:version="1.4 (e7c3feb100, 2024-10-09)"
   xmlns:inkscape="http://www.inkscape.org/namespaces/inkscape"
   xmlns:sodipodi="http://sodipodi.sourceforge.net/DTD/sodipodi-0.dtd"
   xmlns="http://www.w3.org/2000/svg"
   xmlns:svg="http://www.w3.org/2000/svg"><defs
   id="defs96" /><sodipodi:namedview
   id="namedview96"
   pagecolor="#ffffff"
   bordercolor="#000000"
   borderopacity="0.25"
   inkscape:showpageshadow="2"
   inkscape:pageopacity="0.0"
   inkscape:pagecheckerboard="0"
   inkscape:deskcolor="#d1d1d1"
   inkscape:zoom="0.34418324"
   inkscape:cx="319.5972"
   inkscape:cy="165.60946"
   inkscape:window-width="2560"
   inkscape:window-height="1350"
   inkscape:window-x="0"
   inkscape:window-y="0"
   inkscape:window-maximized="1"
   inkscape:current-layer="Layer_1" />
<path
   fill="#010202"
   d="m 190.0977,290.0977 c -55.1402,0 -100,-44.8599 -100,-100 0,-55.1402 44.8598,-100.00004 100,-100.00004 55.1401,0 100,44.85984 100,100.00004 0,55.1401 -44.8599,100 -100,100 z m 0,-180.00004 c -44.1123,0 -80,35.88774 -80,80.00004 0,44.1123 35.8877,80 80,80 44.1123,0 80,-35.8877 80,-80 0,-44.1123 -35.8877,-80.00004 -80,-80.00004 z"
   id="path1"
   style="fill:#ffffff" />
<path
   fill="#010202"
   d="m 190,74 c -5.5229,0 -10,-4.47705 -10,-10 V 10 c 0,-5.52295 4.4771,-10 10,-10 5.523,0 10,4.47705 10,10 v 54 c 0,5.52295 -4.477,10 -10,10 z"
   id="path2"
   style="fill:#ffffff" />
<path
   fill="#010202"
   d="m 190,380 c -5.5229,0 -10,-4.477 -10,-10 v -54 c 0,-5.5229 4.4771,-10 10,-10 5.523,0 10,4.4771 10,10 v 54 c 0,5.523 -4.477,10 -10,10 z"
   id="path3"
   style="fill:#ffffff" />
<path
   fill="#010202"
   d="M 64,200 H 10 C 4.47705,200 0,195.523 0,190 0,184.4771 4.47705,180 10,180 h 54 c 5.523,0 10,4.4771 10,10 0,5.523 -4.477,10 -10,10 z"
   id="path4"
   style="fill:#ffffff" />
<path
   fill="#010202"
   d="m 370,200 h -54 c -5.5229,0 -10,-4.477 -10,-10 0,-5.5229 4.4771,-10 10,-10 h 54 c 5.523,0 10,4.4771 10,10 0,5.523 -4.477,10 -10,10 z"
   id="path5"
   style="fill:#ffffff" />
<path
   fill="#010202"
   d="m 278.542,111.45801 c -2.5591,0 -5.1187,-0.97607 -7.0713,-2.92871 -3.9048,-3.90527 -3.9048,-10.2373 0,-14.14258 l 38.7373,-38.7373 c 3.9053,-3.90527 10.2373,-3.90527 14.1426,0 3.9048,3.90527 3.9048,10.2373 0,14.14258 l -38.7373,38.7373 c -1.9527,1.95263 -4.5122,2.92871 -7.0713,2.92871 z"
   id="path6"
   style="fill:#ffffff" />
<path
   fill="#010202"
   d="m 62.7207,327.2793 c -2.55908,0 -5.11865,-0.9761 -7.07129,-2.9287 -3.90479,-3.9053 -3.90479,-10.2373 0,-14.1426 L 94.3867,271.4707 c 3.9053,-3.9053 10.2373,-3.9053 14.1426,0 3.9048,3.9053 3.9048,10.2373 0,14.1426 L 69.792,324.3506 c -1.9526,1.9526 -4.5122,2.9287 -7.0713,2.9287 z"
   id="path7"
   style="fill:#ffffff" />
<path
   fill="#010202"
   d="m 101.458,111.45801 c -2.5591,0 -5.1186,-0.97607 -7.0713,-2.92871 L 55.64942,69.792 c -3.90479,-3.90527 -3.90479,-10.2373 0,-14.14258 3.90527,-3.90527 10.23728,-3.90527 14.14258,0 l 38.7373,38.7373 c 3.9048,3.90527 3.9048,10.2373 0,14.14258 -1.9526,1.95263 -4.5122,2.92871 -7.0713,2.92871 z"
   id="path8"
   style="fill:#ffffff" />
<path
   fill="#010202"
   d="m 317.2793,327.2793 c -2.5591,0 -5.1186,-0.9761 -7.0713,-2.9287 l -38.7373,-38.7373 c -3.9048,-3.9053 -3.9048,-10.2373 0,-14.1426 3.9053,-3.9053 10.2373,-3.9053 14.1426,0 l 38.7373,38.7373 c 3.9048,3.9053 3.9048,10.2373 0,14.1426 -1.9526,1.9526 -4.5122,2.9287 -7.0713,2.9287 z"
   id="path9"
   style="fill:#ffffff" />























































































</svg>
