<?xml version="1.0" encoding="UTF-8" standalone="no"?>
<!-- Generator: Adobe Illustrator 19.1.0, SVG Export Plug-In . SVG Version: 6.00 Build 0)  -->

<svg
   version="1.1"
   id="Layer_1"
   x="0px"
   y="0px"
   width="380"
   height="229.64795"
   viewBox="0 0 380 229.64795"
   enable-background="new 0 0 3318 3318"
   xml:space="preserve"
   sodipodi:docname="0.1.svg"
   inkscape:version="1.4 (e7c3feb100, 2024-10-09)"
   xmlns:inkscape="http://www.inkscape.org/namespaces/inkscape"
   xmlns:sodipodi="http://sodipodi.sourceforge.net/DTD/sodipodi-0.dtd"
   xmlns="http://www.w3.org/2000/svg"
   xmlns:svg="http://www.w3.org/2000/svg"><defs
   id="defs96" /><sodipodi:namedview
   id="namedview96"
   pagecolor="#ffffff"
   bordercolor="#000000"
   borderopacity="0.25"
   inkscape:showpageshadow="2"
   inkscape:pageopacity="0.0"
   inkscape:pagecheckerboard="0"
   inkscape:deskcolor="#d1d1d1"
   inkscape:zoom="0.34418324"
   inkscape:cx="1255.1454"
   inkscape:cy="700.20841"
   inkscape:window-width="2560"
   inkscape:window-height="1350"
   inkscape:window-x="0"
   inkscape:window-y="0"
   inkscape:window-maximized="1"
   inkscape:current-layer="Layer_1" />


























































<path
   fill="#010202"
   d="M 69.7168,229.64797 C 31.24512,229.39457 0,197.98977 0,159.64157 c 0,-33.3242 22.98682,-61.1797 54.27881,-68.2627 -0.50879,-2.7993 -0.76416,-5.6557 -0.76416,-8.5591 0,-26.2524 21.35791,-47.6103 47.61084,-47.6103 8.71973,0 17.07764,2.32715 24.36963,6.688 C 145.47608,15.47461 176.30713,0 209.95557,0 262.54395,0 306.8711,38.73828 314.73584,89.78417 351.13428,92.23637 380,122.63187 380,159.64157 c 0,38.2222 -31.0957,69.6246 -69.31787,70.001 z m 31.40869,-174.4385 c -15.22461,0 -27.61084,12.3858 -27.61084,27.6104 0,4.3432 0.98584,8.5068 2.93018,12.374 1.52686,3.0371 1.40625,6.6421 -0.32031,9.5708 -1.72656,2.9282 -4.82275,4.7788 -8.21973,4.9131 C 41.04248,110.73827 20,132.68507 20,159.64157 c 0,27.3926 22.33252,49.8257 49.78271,50.0064 h 240.80078 c 27.2041,-0.2685 49.4165,-22.6992 49.4165,-50.0014 0,-27.5796 -22.4375,-50.0171 -50.0166,-50.0171 -1.02783,0 -2.14502,0.044 -3.51562,0.1396 -2.65332,0.1851 -5.27393,-0.6973 -7.27686,-2.4492 -2.00293,-1.7524 -3.2251,-4.231 -3.39551,-6.8867 -2.89307,-45.1001 -40.59814,-80.42825 -85.83984,-80.42825 -30.33984,0 -57.85889,15.50879 -73.61377,41.48585 -1.59473,2.6299 -4.31152,4.3794 -7.36572,4.7441 -3.05273,0.3604 -6.10596,-0.6967 -8.2749,-2.8779 -5.22217,-5.251 -12.17431,-8.1426 -19.57568,-8.1426 z"
   id="path59"
   style="fill:#ffffff" />





































</svg>
