<?xml version="1.0" encoding="UTF-8" standalone="no"?>
<!-- Generator: Adobe Illustrator 19.1.0, SVG Export Plug-In . SVG Version: 6.00 Build 0)  -->

<svg
   version="1.1"
   id="Layer_1"
   x="0px"
   y="0px"
   width="459.75"
   height="420"
   viewBox="0 0 459.75 420"
   enable-background="new 0 0 3318 3318"
   xml:space="preserve"
   sodipodi:docname="2.svg"
   inkscape:version="1.4 (e7c3feb100, 2024-10-09)"
   xmlns:inkscape="http://www.inkscape.org/namespaces/inkscape"
   xmlns:sodipodi="http://sodipodi.sourceforge.net/DTD/sodipodi-0.dtd"
   xmlns="http://www.w3.org/2000/svg"
   xmlns:svg="http://www.w3.org/2000/svg"><defs
   id="defs96" /><sodipodi:namedview
   id="namedview96"
   pagecolor="#ffffff"
   bordercolor="#000000"
   borderopacity="0.25"
   inkscape:showpageshadow="2"
   inkscape:pageopacity="0.0"
   inkscape:pagecheckerboard="0"
   inkscape:deskcolor="#d1d1d1"
   inkscape:zoom="0.34418324"
   inkscape:cx="249.8669"
   inkscape:cy="706.01927"
   inkscape:window-width="2560"
   inkscape:window-height="1350"
   inkscape:window-x="0"
   inkscape:window-y="0"
   inkscape:window-maximized="1"
   inkscape:current-layer="Layer_1" />









<path
   fill="#010202"
   d="m 326.5479,270.0005 c -2.9083,0 -5.792,-1.2627 -7.7686,-3.6968 -3.4814,-4.2871 -2.8281,-10.5849 1.459,-14.0664 18.8174,-15.2808 29.6094,-37.9302 29.6094,-62.1396 0,-44.11235 -35.8877,-80.00005 -80,-80.00005 -40.8033,0 -74.981,30.52832 -79.5015,71.01125 -0.6128,5.4888 -5.5571,9.4389 -11.0478,8.8291 -5.4883,-0.6133 -9.4415,-5.5596 -8.8282,-11.0484 5.6519,-50.61959 48.3745,-88.79195 99.3775,-88.79195 55.1406,0 100,44.85986 100,100.00005 0,30.2612 -13.4864,58.5693 -37.002,77.665 -1.8535,1.5054 -4.083,2.2378 -6.2978,2.2378 z"
   id="path10"
   style="fill:#ffffff" />
<path
   fill="#010202"
   d="m 269.75,74 c -5.5225,0 -10,-4.47705 -10,-10 V 10 c 0,-5.52295 4.4775,-10 10,-10 5.5225,0 10,4.47705 10,10 v 54 c 0,5.52295 -4.4775,10 -10,10 z"
   id="path11"
   style="fill:#ffffff" />
<path
   fill="#010202"
   d="m 143.75,200 h -54 c -5.5229,0 -10,-4.477 -10,-10 0,-5.5229 4.4771,-10 10,-10 h 54 c 5.523,0 10,4.4771 10,10 0,5.523 -4.477,10 -10,10 z"
   id="path12"
   style="fill:#ffffff" />
<path
   fill="#010202"
   d="m 449.75,200 h -54 c -5.5225,0 -10,-4.477 -10,-10 0,-5.5229 4.4775,-10 10,-10 h 54 c 5.5225,0 10,4.4771 10,10 0,5.523 -4.4775,10 -10,10 z"
   id="path13"
   style="fill:#ffffff" />
<path
   fill="#010202"
   d="m 358.292,111.45801 c -2.5596,0 -5.1182,-0.97607 -7.0713,-2.92871 -3.9053,-3.90527 -3.9053,-10.2373 0,-14.14258 l 38.7373,-38.7373 c 3.9062,-3.90527 10.2363,-3.90527 14.1426,0 3.9052,3.90527 3.9052,10.2373 0,14.14258 l -38.7373,38.7373 c -1.9531,1.95263 -4.5117,2.92871 -7.0713,2.92871 z"
   id="path14"
   style="fill:#ffffff" />
<path
   fill="#010202"
   d="m 181.208,111.45801 c -2.5591,0 -5.1186,-0.97607 -7.0713,-2.92871 L 135.3994,69.792 c -3.9048,-3.90527 -3.9048,-10.2373 0,-14.14258 3.9053,-3.90527 10.2373,-3.90527 14.1426,0 l 38.7373,38.7373 c 3.9048,3.90527 3.9048,10.2373 0,14.14258 -1.9526,1.95263 -4.5122,2.92871 -7.0713,2.92871 z"
   id="path15"
   style="fill:#ffffff" />
<path
   fill="#010202"
   d="m 397.0293,327.2793 c -2.5596,0 -5.1182,-0.9761 -7.0713,-2.9287 l -38.7373,-38.7373 c -3.9053,-3.9053 -3.9053,-10.2373 0,-14.1426 3.9063,-3.9053 10.2363,-3.9053 14.1426,0 l 38.7373,38.7373 c 3.9053,3.9053 3.9053,10.2373 0,14.1426 -1.9531,1.9526 -4.5117,2.9287 -7.0713,2.9287 z"
   id="path16"
   style="fill:#ffffff" />
<path
   fill="#010202"
   d="M 69.7168,420 C 31.2451,419.7466 0,388.3418 0,349.9936 0,316.6694 22.9868,288.814 54.2788,281.7309 c -0.5088,-2.7993 -0.7641,-5.6557 -0.7641,-8.559 0,-26.2525 21.3579,-47.6104 47.6108,-47.6104 8.7197,0 17.0776,2.3272 24.3696,6.688 19.981,-26.4228 50.812,-41.8974 84.4605,-41.8974 52.5884,0 96.9155,38.7382 104.7807,89.7841 36.3985,2.4522 65.2637,32.8477 65.2637,69.8575 0,38.2221 -31.0957,69.6245 -69.3184,70.0009 z m 31.4087,-174.4385 c -15.2246,0 -27.6109,12.3858 -27.6109,27.6104 0,4.3432 0.9859,8.5068 2.9302,12.374 1.5269,3.0371 1.4063,6.6421 -0.3203,9.5708 -1.7265,2.9282 -4.8227,4.7788 -8.2197,4.9131 C 41.0425,301.0903 20,323.0371 20,349.9936 20,377.3862 42.3325,399.8193 69.7827,400 H 310.583 C 337.7871,399.7315 360,377.3008 360,349.9986 c 0,-27.5796 -22.4375,-50.0171 -50.0166,-50.0171 -1.0274,0 -2.1445,0.044 -3.5147,0.1396 -2.6464,0.1812 -5.2744,-0.6963 -7.2773,-2.4492 -2.0029,-1.7524 -3.2256,-4.2305 -3.3955,-6.8867 -2.8936,-45.1001 -40.5986,-80.4282 -85.8403,-80.4282 -30.3399,0 -57.8589,15.5088 -73.6138,41.4858 -1.5947,2.6299 -4.3115,4.3794 -7.3657,4.7441 -3.0537,0.3604 -6.106,-0.6967 -8.2749,-2.8779 -5.2222,-5.251 -12.1743,-8.1426 -19.5757,-8.1426 z"
   id="path17"
   style="fill:#ffffff" />















































































</svg>
