<?xml version="1.0" encoding="UTF-8" standalone="no"?>
<!-- Generator: Adobe Illustrator 19.1.0, SVG Export Plug-In . SVG Version: 6.00 Build 0)  -->

<svg
   version="1.1"
   id="Layer_1"
   x="0px"
   y="0px"
   width="380"
   height="314.46191"
   viewBox="0 0 380 314.46191"
   enable-background="new 0 0 3318 3318"
   xml:space="preserve"
   sodipodi:docname="11.svg"
   inkscape:version="1.4 (e7c3feb100, 2024-10-09)"
   xmlns:inkscape="http://www.inkscape.org/namespaces/inkscape"
   xmlns:sodipodi="http://sodipodi.sourceforge.net/DTD/sodipodi-0.dtd"
   xmlns="http://www.w3.org/2000/svg"
   xmlns:svg="http://www.w3.org/2000/svg"><defs
   id="defs96" /><sodipodi:namedview
   id="namedview96"
   pagecolor="#ffffff"
   bordercolor="#000000"
   borderopacity="0.25"
   inkscape:showpageshadow="2"
   inkscape:pageopacity="0.0"
   inkscape:pagecheckerboard="0"
   inkscape:deskcolor="#d1d1d1"
   inkscape:zoom="0.34418324"
   inkscape:cx="-23.243433"
   inkscape:cy="-360.27321"
   inkscape:window-width="2560"
   inkscape:window-height="1350"
   inkscape:window-x="0"
   inkscape:window-y="0"
   inkscape:window-maximized="1"
   inkscape:current-layer="Layer_1" />

































































<path
   fill="#010202"
   d="m 310.5796,229.55272 h -10.584 v 0 L 69.7168,229.46192 C 31.2749,229.46192 0,198.10062 0,159.55172 c 0,-33.2763 22.98633,-61.0937 54.27881,-68.1679 -0.50879,-2.7989 -0.76416,-5.6563 -0.76416,-8.5586 0,-26.2529 21.35795,-47.6104 47.61085,-47.6104 8.7202,0 17.0781,2.3262 24.3691,6.6866 19.9825,-26.4248 50.814,-41.9014 84.461,-41.9014 52.5849,0 96.9096,38.7285 104.7783,89.7666 36.4019,2.4482 65.2661,32.834 65.2661,69.833 0,38.1963 -31.0962,69.5771 -69.3184,69.9521 -0.034,0.001 -0.068,0.001 -0.102,0.001 z m -10.5762,-20.0039 h 10.5318 C 337.8149,209.25392 360,186.85552 360,159.59572 c 0,-27.5654 -22.4375,-49.9922 -50.0166,-49.9922 -1.1851,0 -2.4419,0.076 -3.5156,0.1504 -2.6514,0.1934 -5.2735,-0.6963 -7.2769,-2.4492 -2.0029,-1.752 -3.2251,-4.2305 -3.3955,-6.8858 -2.8926,-45.0966 -40.5981,-80.4228 -85.8398,-80.4228 -30.3384,0 -57.8574,15.5098 -73.6138,41.4892 -1.5947,2.6299 -4.3115,4.3799 -7.3657,4.7442 -3.0537,0.3603 -6.1065,-0.6973 -8.2749,-2.8779 -5.2207,-5.25 -12.1729,-8.1407 -19.5757,-8.1407 -15.2246,0 -27.6108,12.3858 -27.6108,27.6104 0,4.3447 0.9858,8.5078 2.9297,12.374 1.5273,3.0371 1.4067,6.6426 -0.3199,9.5713 -1.7265,2.9277 -4.8227,4.7793 -8.2197,4.9131 C 41.04248,110.74412 20,132.64942 20,159.55172 c 0,27.5206 22.30273,49.9102 49.7168,49.9102 H 80 Z"
   id="path66"
   style="fill:#ffffff" />
<path
   fill="#010202"
   d="m 287.625,314.46192 c 0,0 0,0 -0.01,0 l -56.375,-0.024 c -5.5225,0 -9.9966,-4.4715 -9.9932,-9.9949 0,-5.5205 4.4805,-9.9812 10,-9.9812 0,0 0,0 0.01,0 l 56.375,0.032 c 5.5225,0 9.9966,4.4676 9.9932,9.991 0,5.5205 -4.4805,9.9773 -10,9.9773 z"
   id="path67"
   style="fill:#ffffff" />
<path
   fill="#010202"
   d="m 192.25,314.46192 c 0,0 0,0 0,0 l -99.416,-0.024 c -5.5225,0 -9.9981,-4.4685 -9.9961,-9.992 0,-5.5214 4.479,-9.9841 10,-9.9841 0,0 0,0 0,0 l 99.416,0.032 c 5.5225,0 9.9981,4.4646 9.9961,9.9881 0,5.5215 -4.479,9.9802 -10,9.9802 z"
   id="path68"
   style="fill:#ffffff" />
<path
   fill="#010202"
   d="m 310.875,272.46192 c -10e-4,0 0,0 0,0 l -129.5411,-0.024 c -5.5229,0 -9.9985,-4.4685 -9.997,-9.991 0,-5.5215 4.4785,-9.9851 10,-9.9851 10e-4,0 0,0 0,0 l 129.541,0.032 c 5.523,0 9.9986,4.4646 9.9971,9.9871 0,5.5215 -4.4785,9.9812 -10,9.9812 z"
   id="path69"
   style="fill:#ffffff" />
<path
   fill="#010202"
   d="m 143.875,272.46192 c 0,0 0,0 -0.01,0 l -71.541,-0.024 c -5.5225,0 -9.99755,-4.4705 -9.99462,-9.9929 0.003,-5.5215 4.48002,-9.9832 10.00002,-9.9832 0,0 0,0 0.01,0 l 71.5411,0.032 c 5.5224,0 9.9975,4.4666 9.9946,9.989 0,5.5215 -4.48,9.9793 -10,9.9793 z"
   id="path70"
   style="fill:#ffffff" />


























</svg>
