<?xml version="1.0" encoding="UTF-8" standalone="no"?>
<!-- Generator: Adobe Illustrator 19.1.0, SVG Export Plug-In . SVG Version: 6.00 Build 0)  -->

<svg
   version="1.1"
   id="Layer_1"
   x="0px"
   y="0px"
   width="380"
   height="336.40137"
   viewBox="0 0 380 336.40137"
   enable-background="new 0 0 3318 3318"
   xml:space="preserve"
   sodipodi:docname="6.svg"
   inkscape:version="1.4 (e7c3feb100, 2024-10-09)"
   xmlns:inkscape="http://www.inkscape.org/namespaces/inkscape"
   xmlns:sodipodi="http://sodipodi.sourceforge.net/DTD/sodipodi-0.dtd"
   xmlns="http://www.w3.org/2000/svg"
   xmlns:svg="http://www.w3.org/2000/svg"><defs
   id="defs96" /><sodipodi:namedview
   id="namedview96"
   pagecolor="#ffffff"
   bordercolor="#000000"
   borderopacity="0.25"
   inkscape:showpageshadow="2"
   inkscape:pageopacity="0.0"
   inkscape:pagecheckerboard="0"
   inkscape:deskcolor="#d1d1d1"
   inkscape:zoom="0.34418324"
   inkscape:cx="-337.02978"
   inkscape:cy="92.973731"
   inkscape:window-width="2560"
   inkscape:window-height="1350"
   inkscape:window-x="0"
   inkscape:window-y="0"
   inkscape:window-maximized="1"
   inkscape:current-layer="Layer_1" />







































































<path
   fill="#010202"
   d="m 310.5796,229.55272 h -10.584 v 0 L 69.7168,229.46192 C 31.2749,229.46192 0,198.10062 0,159.55132 c 0,-33.2764 22.98633,-61.0938 54.27881,-68.168 -0.5083,-2.7988 -0.76416,-5.6553 -0.76416,-8.5576 0,-26.253 21.35795,-47.6114 47.61085,-47.6114 8.7207,0 17.0776,2.3262 24.3691,6.6871 19.9825,-26.4248 50.814,-41.9014 84.461,-41.9014 52.5849,0 96.9096,38.7285 104.7783,89.7661 36.4019,2.4482 65.2661,32.834 65.2661,69.8335 0,38.1963 -31.0962,69.5771 -69.3184,69.9521 -0.034,0.001 -0.068,0.001 -0.102,0.001 z m -10.5762,-20.0039 h 10.5318 C 337.8149,209.25392 360,186.85552 360,159.59572 c 0,-27.5659 -22.4375,-49.9927 -50.0166,-49.9927 -1.1787,0 -2.4385,0.077 -3.5156,0.1514 -2.6514,0.1865 -5.2735,-0.6968 -7.2769,-2.4492 -2.0029,-1.7525 -3.2251,-4.231 -3.3955,-6.8867 -2.8926,-45.0967 -40.5981,-80.4224 -85.8398,-80.4224 -30.3384,0 -57.8574,15.5102 -73.6138,41.4893 -1.5947,2.6298 -4.3115,4.3793 -7.3657,4.7441 -3.0552,0.3599 -6.106,-0.6968 -8.2749,-2.8779 -5.2212,-5.25 -12.1734,-8.1411 -19.5757,-8.1411 -15.2246,0 -27.6108,12.3862 -27.6108,27.6113 0,4.3437 0.9858,8.5068 2.9301,12.374 1.5269,3.0371 1.4063,6.6421 -0.3203,9.5708 -1.7265,2.9282 -4.8227,4.7788 -8.2197,4.9131 C 41.04248,110.74412 20,132.64892 20,159.55132 c 0,27.521 22.30273,49.9106 49.7168,49.9106 H 80 Z"
   id="path72"
   style="fill:#ffffff" />
<path
   fill="#010202"
   d="m 154.958,336.40142 c -2.561,0 -5.1216,-0.9776 -7.0747,-2.9327 -3.9033,-3.9072 -3.8999,-10.2392 0.01,-14.1416 l 25.042,-25.0166 c 3.9077,-3.9033 10.2393,-3.9004 14.1421,0.01 3.9033,3.9072 3.8999,10.2392 -0.01,14.1416 l -25.042,25.0166 c -1.9522,1.9502 -4.5103,2.9258 -7.0674,2.9258 z"
   id="path73"
   style="fill:#ffffff" />
<path
   fill="#010202"
   d="m 67.958,279.40142 c -2.561,0 -5.12157,-0.9776 -7.0747,-2.9327 -3.90332,-3.9072 -3.8999,-10.2382 0.007,-14.1416 l 15.79198,-15.7763 c 3.9072,-3.9034 10.2388,-3.9004 14.1421,0.01 3.9033,3.9072 3.8999,10.2383 -0.01,14.1416 l -15.792,15.7764 c -1.9522,1.9502 -4.5098,2.9258 -7.0674,2.9258 z"
   id="path74"
   style="fill:#ffffff" />
<path
   fill="#010202"
   d="m 206.958,279.40142 c -2.561,0 -5.1216,-0.9776 -7.0747,-2.9327 -3.9033,-3.9072 -3.8999,-10.2382 0.01,-14.1416 l 15.792,-15.7763 c 3.9072,-3.9034 10.2388,-3.9004 14.1421,0.01 3.9033,3.9072 3.8999,10.2383 -0.01,14.1416 l -15.792,15.7764 c -1.9522,1.9502 -4.5098,2.9258 -7.0674,2.9258 z"
   id="path75"
   style="fill:#ffffff" />
<path
   fill="#010202"
   d="m 251.958,304.56442 c -2.5615,0 -5.1225,-0.9775 -7.0757,-2.9335 -3.9028,-3.9073 -3.8984,-10.2393 0.01,-14.1416 l 40.9922,-40.9395 c 3.9077,-3.9033 10.2393,-3.8994 14.1421,0.01 3.9028,3.9072 3.8984,10.2393 -0.01,14.1416 l -40.9922,40.9394 c -1.9521,1.9502 -4.5093,2.9248 -7.0664,2.9248 z"
   id="path76"
   style="fill:#ffffff" />
<path
   fill="#010202"
   d="m 100.958,315.56442 c -2.561,0 -5.1216,-0.9775 -7.0747,-2.9326 -3.9033,-3.9072 -3.8999,-10.2383 0.01,-14.1416 l 51.9922,-51.9394 c 3.9072,-3.9033 10.2388,-3.9004 14.1421,0.01 3.9033,3.9072 3.8999,10.2383 -0.01,14.1416 l -51.9922,51.9395 c -1.9522,1.9502 -4.5103,2.9257 -7.0674,2.9257 z"
   id="path77"
   style="fill:#ffffff" />



















</svg>
