<?xml version="1.0" encoding="UTF-8" standalone="no"?>
<!-- Generator: Adobe Illustrator 19.1.0, SVG Export Plug-In . SVG Version: 6.00 Build 0)  -->

<svg
   version="1.1"
   id="Layer_1"
   x="0px"
   y="0px"
   width="380"
   height="383.46191"
   viewBox="0 0 380 383.46191"
   enable-background="new 0 0 3318 3318"
   xml:space="preserve"
   sodipodi:docname="7.svg"
   inkscape:version="1.4 (e7c3feb100, 2024-10-09)"
   xmlns:inkscape="http://www.inkscape.org/namespaces/inkscape"
   xmlns:sodipodi="http://sodipodi.sourceforge.net/DTD/sodipodi-0.dtd"
   xmlns="http://www.w3.org/2000/svg"
   xmlns:svg="http://www.w3.org/2000/svg"><defs
   id="defs96" /><sodipodi:namedview
   id="namedview96"
   pagecolor="#ffffff"
   bordercolor="#000000"
   borderopacity="0.25"
   inkscape:showpageshadow="2"
   inkscape:pageopacity="0.0"
   inkscape:pagecheckerboard="0"
   inkscape:deskcolor="#d1d1d1"
   inkscape:zoom="0.34418324"
   inkscape:cx="-307.97548"
   inkscape:cy="322.50263"
   inkscape:window-width="2560"
   inkscape:window-height="1350"
   inkscape:window-x="0"
   inkscape:window-y="0"
   inkscape:window-maximized="1"
   inkscape:current-layer="Layer_1" />













































































<path
   fill="#010202"
   d="m 310.5791,229.55272 h -10.584 v 0 L 69.7168,229.46192 C 31.2749,229.46192 0,198.10062 0,159.55132 c 0,-33.2764 22.9863,-61.0938 54.2788,-68.168 -0.5083,-2.7988 -0.7641,-5.6553 -0.7641,-8.5576 0,-26.253 21.3579,-47.6114 47.6108,-47.6114 8.7207,0 17.0776,2.3262 24.3691,6.6871 19.9825,-26.4248 50.814,-41.9014 84.461,-41.9014 52.5844,0 96.9096,38.7285 104.7788,89.7661 36.4023,2.4482 65.2656,32.834 65.2656,69.8335 0,38.1963 -31.0967,69.5771 -69.3184,69.9521 -0.034,0.001 -0.068,0.001 -0.1025,0.001 z m -10.5762,-20.0039 h 10.5313 C 337.8145,209.25392 360,186.85502 360,159.59572 c 0,-27.5659 -22.4375,-49.9927 -50.0166,-49.9927 -1.1787,0 -2.4385,0.077 -3.5146,0.1514 -2.6426,0.1821 -5.2735,-0.6968 -7.2774,-2.4492 -2.0029,-1.7525 -3.2256,-4.231 -3.3955,-6.8867 -2.8936,-45.0967 -40.5986,-80.4224 -85.8403,-80.4224 -30.3384,0 -57.8575,15.5102 -73.6138,41.4893 -1.5947,2.6298 -4.3115,4.3793 -7.3657,4.7441 -3.0523,0.3623 -6.106,-0.6968 -8.2749,-2.8779 -5.2212,-5.25 -12.1734,-8.1411 -19.5757,-8.1411 -15.2246,0 -27.6108,12.3862 -27.6108,27.6113 0,4.3437 0.9858,8.5068 2.9301,12.374 1.5269,3.0371 1.4063,6.6421 -0.3203,9.5708 -1.7265,2.9282 -4.8227,4.7788 -8.2197,4.9131 C 41.0425,110.74022 20,132.64502 20,159.54742 c 0,27.521 22.3027,49.9106 49.7168,49.9106 H 80 Z"
   id="path78"
   style="fill:#ffffff" />
<path
   fill="#010202"
   d="m 94.0024,364.51562 c -2.561,0 -5.1215,-0.9775 -7.0747,-2.9326 -3.9033,-3.9072 -3.8999,-10.2383 0.01,-14.1416 l 61.9034,-61.8408 c 3.9072,-3.9024 10.2387,-3.9004 14.1421,0.01 3.9033,3.9072 3.8999,10.2383 -0.01,14.1416 l -61.9033,61.8408 c -1.9521,1.9502 -4.5097,2.9258 -7.0674,2.9258 z"
   id="path79"
   style="fill:#ffffff" />
<path
   fill="#010202"
   d="m 155.8745,364.54692 c -2.561,0 -5.1216,-0.9776 -7.0747,-2.9327 L 86.959,299.71092 c -3.9033,-3.9072 -3.8999,-10.2383 0.01,-14.1416 3.9077,-3.9023 10.2393,-3.9004 14.1421,0.01 l 61.8408,61.9033 c 3.9033,3.9072 3.8999,10.2383 -0.01,14.1416 -1.9521,1.9502 -4.5098,2.9258 -7.0674,2.9258 z"
   id="path80"
   style="fill:#ffffff" />
<path
   fill="#010202"
   d="m 174.9541,333.46192 c 0,0 0,0 0,0 l -100,0.029 c -5.5229,0 -9.998,-4.4971 -9.9951,-10.0195 0,-5.5215 4.4795,-10.0098 10,-10.0098 0,0 0,0 0,0 l 100,0.104 c 5.5229,0 9.998,4.4304 9.9951,9.9529 0,5.5205 -4.48,9.9431 -10,9.9431 z"
   id="path81"
   style="fill:#ffffff" />
<path
   fill="#010202"
   d="m 124.9287,383.46192 c 0,0 0,0 0,0 -5.5229,0 -9.998,-4.416 -9.9951,-9.9385 l 0.051,-100.0332 c 0,-5.5215 4.48,-10.0283 10,-10.0283 0,0 0,0 0,0 5.5229,0 9.998,4.5488 9.9951,10.0713 l -0.051,99.9668 c 0,5.5215 -4.48,9.9619 -10,9.9619 z"
   id="path82"
   style="fill:#ffffff" />
<path
   fill="#010202"
   d="m 232.7109,320.19632 c -3.4453,0 -6.7968,-1.7813 -8.6533,-4.9736 -2.7773,-4.7735 -1.1592,-10.8946 3.6153,-13.6719 l 60.5058,-35.1992 c 4.7744,-2.7813 10.8955,-1.1592 13.6719,3.6152 2.7773,4.7734 1.1592,10.8945 -3.6152,13.6719 l -60.5059,35.1992 c -1.582,0.9209 -3.3115,1.3584 -5.0186,1.3584 z"
   id="path83"
   style="fill:#ffffff" />
<path
   fill="#010202"
   d="m 293.707,319.29202 c -1.6113,0 -3.2451,-0.3906 -4.7617,-1.2129 l -61.5234,-33.3906 c -4.8535,-2.6348 -6.6533,-8.7051 -4.0186,-13.5596 2.6338,-4.8535 8.7031,-6.6523 13.5596,-4.0185 l 61.5234,33.3906 c 4.8535,2.6347 6.6533,8.7051 4.0186,13.5595 -1.8115,3.3379 -5.249,5.2315 -8.7979,5.2315 z"
   id="path84"
   style="fill:#ffffff" />
<path
   fill="#010202"
   d="m 262.9365,337.46192 c 0,0 0,0 0,0 -5.5234,0 -9.998,-4.71 -9.9951,-10.2324 l 0.035,-68.7979 c 0,-5.5214 4.4795,-9.9697 10,-9.9697 0,0 0,0 0,0 5.5234,0 9.998,4.3433 9.9951,9.8657 l -0.035,68.9812 c 0,5.5215 -4.4795,10.1531 -10,10.1531 z"
   id="path85"
   style="fill:#ffffff" />











</svg>
