<?xml version="1.0" encoding="UTF-8" standalone="no"?>
<!-- Generator: Adobe Illustrator 19.1.0, SVG Export Plug-In . SVG Version: 6.00 Build 0)  -->

<svg
   version="1.1"
   id="Layer_1"
   x="0px"
   y="0px"
   width="380"
   height="336.40137"
   viewBox="0 0 380 336.40137"
   enable-background="new 0 0 3318 3318"
   xml:space="preserve"
   sodipodi:docname="5.svg"
   inkscape:version="1.4 (e7c3feb100, 2024-10-09)"
   xmlns:inkscape="http://www.inkscape.org/namespaces/inkscape"
   xmlns:sodipodi="http://sodipodi.sourceforge.net/DTD/sodipodi-0.dtd"
   xmlns="http://www.w3.org/2000/svg"
   xmlns:svg="http://www.w3.org/2000/svg"><defs
   id="defs96" /><sodipodi:namedview
   id="namedview96"
   pagecolor="#ffffff"
   bordercolor="#000000"
   borderopacity="0.25"
   inkscape:showpageshadow="2"
   inkscape:pageopacity="0.0"
   inkscape:pagecheckerboard="0"
   inkscape:deskcolor="#d1d1d1"
   inkscape:zoom="0.34418324"
   inkscape:cx="598.51839"
   inkscape:cy="581.08582"
   inkscape:window-width="2560"
   inkscape:window-height="1350"
   inkscape:window-x="0"
   inkscape:window-y="0"
   inkscape:window-maximized="1"
   inkscape:current-layer="Layer_1" />



























































<path
   fill="#010202"
   d="m 310.57959,229.55272 h -10.58398 c -5.52246,0 -9.99805,-4.4805 -9.99609,-10.0039 0.002,-5.5215 4.479,-9.9961 10,-9.9961 10e-4,0 0.002,0 0.004,0 h 10.53174 C 337.81494,209.25782 360,186.85942 360,159.59962 c 0,-27.5659 -22.4375,-49.9927 -50.0166,-49.9927 -1.17871,0 -2.43848,0.077 -3.51562,0.1514 -2.65332,0.1865 -5.27393,-0.6968 -7.27686,-2.4492 -2.00293,-1.7525 -3.2251,-4.231 -3.39551,-6.8867 -2.89258,-45.0967 -40.59814,-80.4224 -85.83984,-80.4224 -30.33838,0 -57.85742,15.5102 -73.61377,41.4893 -1.59473,2.6298 -4.31152,4.3793 -7.36572,4.7441 -3.05273,0.3599 -6.10596,-0.6968 -8.2749,-2.8779 -5.22119,-5.25 -12.17334,-8.1411 -19.57568,-8.1411 -15.22461,0 -27.61084,12.3862 -27.61084,27.6113 0,4.3437 0.98584,8.5068 2.93018,12.374 1.52686,3.0371 1.40625,6.6421 -0.32031,9.5708 -1.72656,2.9282 -4.82275,4.7788 -8.21973,4.9131 C 41.04248,110.74412 20,132.64892 20,159.55132 c 0,27.521 22.30273,49.9106 49.7168,49.9106 H 80 c 5.52295,0 10,4.4775 10,10 0,5.5225 -4.47705,10 -10,10 H 69.7168 C 31.2749,229.46192 0,198.10062 0,159.55132 c 0,-33.2764 22.98633,-61.0938 54.27881,-68.168 -0.5083,-2.7988 -0.76416,-5.6553 -0.76416,-8.5576 0,-26.253 21.35791,-47.6114 47.61084,-47.6114 8.7207,0 17.07764,2.3262 24.36914,6.6871 C 145.47705,15.47662 176.30859,2e-5 209.95557,2e-5 c 52.58496,0 96.90967,38.7285 104.77832,89.7661 36.40185,2.4482 65.26611,32.834 65.26611,69.8335 0,38.1963 -31.09619,69.5772 -69.31836,69.9522 -0.0337,9e-4 -0.0679,9e-4 -0.10205,9e-4 z"
   id="path60"
   style="fill:#ffffff" />
<path
   fill="#010202"
   d="m 96.0332,323.54692 c -2.55713,0 -5.11377,-0.9746 -7.06592,-2.9239 -3.9082,-3.9023 -3.9126,-10.2344 -0.0103,-14.1425 l 42.95806,-43.0186 H 106.0332 c -4.0918,0 -7.77051,-2.4922 -9.2876,-6.293 -1.5166,-3.7998 -0.56543,-8.1406 2.40137,-10.958 l 63,-59.8291 c 4.00488,-3.8027 10.33398,-3.6416 14.13721,0.3653 3.80322,4.0039 3.64014,10.3339 -0.36475,14.1367 l -44.83447,42.5781 h 24.94824 c 4.04346,0 7.68896,2.4346 9.2373,6.1699 1.54883,3.7354 0.6958,8.0352 -2.16113,10.8965 l -60,60.085 c -1.95312,1.9551 -4.51464,2.9336 -7.07617,2.9336 z"
   id="path61"
   style="fill:#ffffff" />
<path
   fill="#010202"
   d="m 197.95801,288.40142 c -2.56104,0 -5.12158,-0.9776 -7.07471,-2.9327 -3.90332,-3.9072 -3.8999,-10.2382 0.007,-14.1416 l 42.90853,-42.8652 h -25.84082 c -4.0874,0 -7.76318,-2.4873 -9.28271,-6.2812 -1.52002,-3.794 -0.57812,-8.1319 2.37891,-10.9532 l 63,-60.1211 c 3.99561,-3.8125 10.3252,-3.6655 14.13818,0.3306 3.81299,3.9956 3.66504,10.3252 -0.33057,14.1382 l -44.94043,42.8867 h 25.03662 c 4.04541,0 7.69238,2.4375 9.23975,6.1758 1.54736,3.7373 0.68994,8.04 -2.17236,10.8984 l -60,59.9395 c -1.95216,1.9502 -4.50978,2.9258 -7.06739,2.9258 z"
   id="path62"
   style="fill:#ffffff" />
<path
   fill="#010202"
   d="m 146.95801,336.40142 c -2.56104,0 -5.12158,-0.9776 -7.07471,-2.9327 -3.90332,-3.9072 -3.8999,-10.2392 0.007,-14.1416 l 25.04199,-25.0166 c 3.90723,-3.9033 10.23877,-3.9004 14.14209,0.01 3.90332,3.9072 3.8999,10.2392 -0.007,14.1416 l -25.04199,25.0166 c -1.95215,1.9502 -4.51025,2.9258 -7.06738,2.9258 z"
   id="path63"
   style="fill:#ffffff" />
<path
   fill="#010202"
   d="m 55.95801,303.40142 c -2.56104,0 -5.12158,-0.9776 -7.07471,-2.9327 -3.90332,-3.9072 -3.8999,-10.2382 0.007,-14.1416 l 15.79199,-15.7763 c 3.90723,-3.9024 10.23877,-3.8994 14.14209,0.01 3.90332,3.9072 3.8999,10.2383 -0.007,14.1416 l -15.79199,15.7764 c -1.95215,1.9502 -4.50977,2.9258 -7.06738,2.9258 z"
   id="path64"
   style="fill:#ffffff" />
<path
   fill="#010202"
   d="m 234.95801,317.40142 c -2.56104,0 -5.12158,-0.9776 -7.07471,-2.9327 -3.90332,-3.9072 -3.8999,-10.2382 0.007,-14.1416 l 51.99219,-51.9394 c 3.90723,-3.9033 10.23877,-3.9004 14.14209,0.01 3.90332,3.9073 3.8999,10.2383 -0.007,14.1416 l -51.99219,51.9395 c -1.95215,1.9502 -4.51025,2.9258 -7.06738,2.9258 z"
   id="path65"
   style="fill:#ffffff" />































</svg>
